<?xml version="1.0" encoding="UTF-8"?>
<svg width="17px" height="18px" viewBox="0 0 17 18" version="1.1" xmlns="http://www.w3.org/2000/svg" xmlns:xlink="http://www.w3.org/1999/xlink">
    <!-- Generator: Sketch 52.2 (67145) - http://www.bohemiancoding.com/sketch -->
    <title>bianji-3@2x</title>
    <desc>Created with Sketch.</desc>
    <g id="v11" stroke="none" stroke-width="1" fill="none" fill-rule="evenodd">
        <g id="个人主页" transform="translate(-238.000000, -318.000000)" fill="#616161" fill-rule="nonzero">
            <g id="bianji-3" transform="translate(238.000000, 318.000000)">
                <path d="M16.2770252,17.9999548 L1.05058634,17.9999548 C0.889869639,17.9999548 0.74886134,17.9374514 0.628858649,17.8489483 C0.611335008,17.8507102 0.59444863,17.8565381 0.57756222,17.8565381 C0.443495081,17.8565381 0.310679661,17.8102084 0.205879268,17.7217956 C0.0590221748,17.5986185 -0.0166935379,17.4118087 0.00310586625,17.2221074 L0.519256341,12.2756217 C0.530999447,12.1610962 0.577584994,12.053528 0.652162825,11.9656574 L7.93525528,3.26840458 C8.03375172,3.15105547 8.17587515,3.0781612 8.32851278,3.06598582 C8.48408618,3.05037691 8.63378801,3.10190211 8.75090048,3.20018622 L13.0301019,6.81203182 C13.2724969,7.01675465 13.3033795,7.37817638 13.098262,7.6204645 L5.83091806,16.2986523 C5.756363,16.3865907 5.65729759,16.4507657 5.54598843,16.4813962 L4.15411177,16.8752329 L16.2443675,16.8752329 C16.6434283,16.8752329 17,16.8538865 17,17.2499821 C17,17.6460777 16.6765867,18 16.2775259,18 L16.2770252,17.9999548 Z M14.3391851,6.1597785 L9.1598837,1.82617369 L9.99125462,0.844258594 C10.4450711,0.307682852 11.1051428,0 11.8025604,0 C12.3396938,0 12.8605324,0.188481428 13.2684004,0.529686157 L14.9200364,1.91122077 C15.8924156,2.72539101 16.0048627,4.19014297 15.170556,5.17725351 L14.3391851,6.16038842 L14.3391851,6.1597785 Z" id="Shape"></path>
            </g>
        </g>
    </g>
</svg>