<?xml version="1.0" standalone="no"?><!DOCTYPE svg PUBLIC "-//W3C//DTD SVG 1.1//EN" "http://www.w3.org/Graphics/SVG/1.1/DTD/svg11.dtd"><svg t="1545716147829" class="icon" style="" viewBox="0 0 1024 1024" version="1.1" xmlns="http://www.w3.org/2000/svg" p-id="5955" xmlns:xlink="http://www.w3.org/1999/xlink" width="200" height="200"><defs><style type="text/css"></style></defs><path d="M512.988002 60.776202c61.764716 0 119.627565 11.707646 173.587524 35.124985 53.959959 23.416316 101.133352 55.486732 141.518131 96.211249 40.385802 40.72554 72.28635 88.237647 95.702666 142.53632 23.416316 54.299697 35.123962 112.331391 35.123962 174.09713 0 61.765739-11.707646 119.968325-35.123962 174.606737-23.417339 54.637388-55.317886 102.31834-95.702666 143.04388-40.384779 40.72554-87.557148 72.795956-141.518131 96.211249-53.958936 23.417339-111.821785 35.124985-173.587524 35.124985s-119.797433-11.707646-174.09713-35.124985c-54.299697-23.415292-101.642958-55.485709-142.026714-96.211249-40.384779-40.72554-72.28635-88.407516-95.702666-143.04388-23.416316-54.639434-35.124985-112.840998-35.124985-174.606737 0-61.765739 11.70867-119.798457 35.124985-174.09713s55.316863-101.811804 95.702666-142.53632c40.384779-40.724517 87.727017-72.794933 142.026714-96.211249C393.189545 72.483848 451.22124 60.776202 512.988002 60.776202zM792.968671 423.223071c12.216229-12.216229 18.665105-27.319206 19.342534-45.304835 0.679475-17.986653-5.089925-33.088606-17.307178-45.305859-12.216229-12.216229-27.149337-18.156522-44.797275-17.816784-17.645892 0.339738-32.578999 6.617721-44.796252 18.835997L418.303526 620.738563l-98.757235-97.740068c-12.217253-12.216229-27.15036-18.495236-44.797275-18.834974-17.647939-0.339738-32.580023 5.599532-44.797275 17.817808-12.217253 12.216229-18.495236 26.640754-18.834974 43.268456-0.339738 16.630772 5.599532 31.05325 17.816784 43.269479l141.517107 142.537344c12.217253 12.216229 28.167526 18.156522 47.851844 17.816784 19.683295-0.339738 35.633568-6.618744 47.850821-18.835997l-4.072759 4.072759L792.968671 423.223071z" p-id="5956"></path></svg>