<?xml version="1.0" standalone="no"?><!DOCTYPE svg PUBLIC "-//W3C//DTD SVG 1.1//EN" "http://www.w3.org/Graphics/SVG/1.1/DTD/svg11.dtd"><svg t="1545489845886" class="icon" style="" viewBox="0 0 1024 1024" version="1.1" xmlns="http://www.w3.org/2000/svg" p-id="4191" xmlns:xlink="http://www.w3.org/1999/xlink" width="32" height="32"><defs><style type="text/css"></style></defs><path d="M512 25.6C243.712 25.6 25.6 243.712 25.6 512s218.112 486.4 486.4 486.4 486.4-218.368 486.4-486.656C998.4 243.712 780.288 25.6 512 25.6z m415.488 486.144c0 225.28-190.208 415.488-415.488 415.488S96.512 737.024 96.512 511.744c0-225.28 190.208-415.744 415.488-415.744s415.488 190.464 415.488 415.744z" fill="#333333" p-id="4192"></path><path d="M715.776 371.2l-265.472 248.832-136.448-136.192c-13.568-13.568-36.096-13.568-49.664 0-13.824 13.824-13.824 35.584 0 49.664l157.952 157.952c7.68 7.68 15.616 7.68 27.648 7.68 12.032 0 19.968 0 27.648-7.68l287.744-270.592c13.824-13.824 13.824-35.584 0-49.664-13.568-13.312-36.096-13.056-49.408 0z" fill="#333333" p-id="4193"></path></svg>